<svg width="256" height="80" viewBox="0 0 256 80" fill="none"
    xmlns="http://www.w3.org/2000/svg">
    <path d="M0.903625 0.511627H14.6211V25.1287C15.7385 23.4029 17.2633 22.0691 19.1953 21.1298C21.1247 20.1905 23.3087 19.7196 25.7498 19.7196C30.2705 19.7196 33.6865 21.1298 35.9978 23.9502C38.3091 26.7705 39.4647 30.8967 39.4647 36.3338V60.2611H25.7473V38.9251C25.7473 34.2516 23.9934 31.9149 20.4884 31.9149C18.6073 31.9149 17.1614 32.564 16.1458 33.8596C15.1276 35.1553 14.6211 37.0236 14.6211 39.4596V60.2636H0.903625V0.511627H0.903625Z" fill="white"/>
    <path fill-rule="evenodd" clip-rule="evenodd" d="M55.6716 59.0036C59.2276 60.6531 62.6971 61.4804 67.4723 61.4804C70.3665 61.4804 73.1538 61.2258 75.8723 60.7167C78.5909 60.2102 82.2792 58.9655 84.364 58.0007L81.0752 48.5978C79.3494 49.4124 78.1658 49.6695 75.9309 50.1251C73.6934 50.5807 71.484 50.8098 69.3 50.8098C65.8967 50.8098 63.4785 50.1098 61.5236 49.0153C59.5661 47.9233 58.6676 46.3909 57.9574 44.1051H83.8676C84.1705 42.7356 84.3232 41.16 84.3232 39.3807C84.3232 33.3378 82.5847 28.5473 79.1051 25.0167C75.6229 21.4862 70.9367 19.7196 65.044 19.7196C60.928 19.7196 57.3083 20.6335 54.1851 22.4636C51.0618 24.2913 48.6589 26.7833 46.984 29.932C45.3065 33.0833 44.4691 36.6393 44.4691 40.6C44.4691 44.9705 45.4465 48.7175 47.4014 51.8407C49.3589 54.964 52.1156 57.3542 55.6716 59.0036ZM69.4272 31.0749C70.6211 32.2433 71.3185 33.8444 71.5221 35.8756V35.8782H57.7309C58.5938 31.5102 60.956 29.3236 64.8174 29.3236C66.696 29.3236 68.2334 29.9065 69.4272 31.0749Z" fill="white"/>
    <path d="M93.4869 79.6167C91.812 79.6167 90.1727 79.4513 88.5716 79.1203C86.9706 78.7894 84.8196 78.1047 83.8549 77.5473L87.6731 66.6298C89.1978 67.1211 89.7273 67.1949 91.8095 67.1949C93.6371 67.1949 95.0855 66.724 96.152 65.7847C97.2186 64.8454 98.2596 63.1578 99.2753 60.7193L100.495 57.8989L85.2626 20.9414H99.7335L107.81 44.0313L115.049 20.9414H129.604L113.145 61.8622C111.213 66.6374 109.348 70.2825 107.545 72.7974C105.743 75.3123 103.748 77.0763 101.564 78.0945C99.3796 79.1076 96.6891 79.6167 93.4869 79.6167Z" fill="white"/>
    <path fill-rule="evenodd" clip-rule="evenodd" d="M184.983 58.9273C187.676 60.6302 190.723 61.4804 194.129 61.4804C196.669 61.4804 198.943 60.984 200.946 59.9938C202.952 59.0011 204.54 57.5935 205.708 55.7633L205.861 60.2585H218.739V20.9389H205.861L205.708 25.5105C204.537 23.6829 202.964 22.2625 200.984 21.2444C199.001 20.2287 196.843 19.7196 194.506 19.7196C190.95 19.7196 187.773 20.6742 184.981 22.5782C182.188 24.4847 180.03 27.0251 178.505 30.1993C176.98 33.3735 176.219 36.8938 176.219 40.7527C176.219 44.8687 177.006 48.5011 178.581 51.6498C180.157 54.7985 182.29 57.2244 184.983 58.9273ZM203.578 46.8491C202.104 48.4756 200.2 49.2876 197.863 49.2876C195.527 49.2876 193.607 48.4756 192.111 46.8491C190.611 45.2225 189.863 43.1404 189.863 40.6C189.863 38.0596 190.611 35.9775 192.111 34.3509C193.607 32.7269 195.527 31.9124 197.863 31.9124C200.2 31.9124 202.104 32.7269 203.578 34.3509C205.052 35.9775 205.787 38.0622 205.787 40.6C205.787 43.1404 205.052 45.2225 203.578 46.8491Z" fill="white"/>
    <path d="M226.489 20.9389H239.825L239.978 26.8062C240.943 24.6731 242.264 23.0338 243.941 21.8909C245.619 20.748 247.573 20.1778 249.808 20.1778C251.534 20.1778 254.179 20.8218 255.449 21.3792L252.247 33.6025C250.885 33.1469 249.987 32.9789 248.207 32.9789C245.565 32.9789 243.572 33.8545 242.225 35.6083C240.879 37.3596 240.207 39.9662 240.207 43.4203V60.2611H226.489V20.9389H226.489Z" fill="white"/>
    <path d="M163.403 49.1349C160.252 49.1349 157.79 48.3865 156.011 46.8873C154.232 45.3905 153.343 43.2931 153.343 40.6C153.343 37.9603 154.219 35.8756 155.973 34.3509C157.724 32.8287 160.124 32.0651 163.174 32.0651C165.582 32.0651 168.481 32.6251 170.767 33.3429L174.506 22.652C172.943 21.8782 171.032 21.2265 168.736 20.7098C166.246 20.1498 163.808 19.8723 161.42 19.8723C157.1 19.8723 153.292 20.7862 149.988 22.6163C146.684 24.444 144.147 26.936 142.367 30.0847C140.588 33.236 139.7 36.7894 139.7 40.7527C139.7 44.9705 140.626 48.6283 142.479 51.7262C144.332 54.8265 146.901 57.2014 150.177 58.8509C153.453 60.5029 157.225 61.3276 161.491 61.3276C163.981 61.3276 166.432 61.0349 168.845 60.452C170.818 59.9734 172.567 59.3447 174.117 58.5785L170.469 48.0073C168.13 48.6742 165.521 49.1349 163.403 49.1349Z" fill="white"/>
    <path d="M253.642 67.6075V78.5275L141.019 78.5275V67.6075L253.642 67.6075Z" fill="#00CEA5"/>
</svg>
