<svg id="cryptowallet" xmlns="http://www.w3.org/2000/svg" width="387" height="318" viewBox="0 0 387 318">
  <path fill="white" d="m376.4,135h-80.8c-5.8,0-10.6,5-10.6,11.2v37.5c0,6.2,4.7,11.2,10.6,11.2h80.8c5.8,0,10.6-5,10.6-11.2v-37.5c0-6.2-4.7-11.2-10.6-11.2Zm-21.5,44.1c-7.8,0-14.2-5.7-14.2-14.1s6.3-15.1,14.2-15.1,14.2,6.7,14.2,15.1-6.3,14.1-14.2,14.1Z"/>
  <path fill="white" d="m292.1,125.7h61.4V30.3c0-17-13.8-30.8-30.8-30.8H31.3C14.3-.5.5,13.3.5,30.3v256.4c0,17,13.8,30.8,30.8,30.8h291.4c17,0,30.8-13.8,30.8-30.8v-83.2h-61.4c-9.2,0-16.6-7.4-16.6-16.6v-44.6c0-9.2,7.4-16.6,16.6-16.6Zm-110.1,144c-6.3,1.6-34,11.8-65.6,0-43.2-15.1-55.1-47.9-58.9-58.9-3.3-9.5-11.2-34.6,0-65.8,7.3-20.3,19.7-40.9,55.1-55.1,38-15.3,71.5-.1,71.8,0,44.9,19,53.3,55.1,53.3,55.1-10.6,0-31.7,0-31.7,0,0,0-19.8-31.2-53.9-30.8-18.7.2-43.8,4.8-59.6,30.8-21.9,36,0,67.6,0,67.6,0,0,14.8,33.9,55.5,33.9,42.6,0,57.6-33.9,57.6-33.9l33.4.2s-14.5,43.1-57.1,56.9Zm38.4-76.5h-41.4s-7.3,19.9-32.6,19.9-31.9-13.9-31.9-32.4,8.8-35.3,32.8-35.3,32.3,23,32.3,23h73.9l-33.2,24.9ZM46,39c-5.5,0-10-4.5-10-10v-.5c0-5.5,4.5-10,10-10h271.5c5.5,0,10,4.5,10,10v.5c0,5.5-4.5,10-10,10H46Z" stroke="#000" stroke-miterlimit="10"/>
</svg>